<svg xmlns="http://www.w3.org/2000/svg" width="161" height="19" viewBox="0 0 161 19" fill="none"><g opacity="0.34"><path d="M17.9408 13.6101V12.1185H25.1115V13.6101H17.9408ZM22.703 5.7005L27.6294 15.9639H25.6999L21.2251 6.38473H21.923L17.4482 15.9639H15.5186L20.4451 5.7005H22.703ZM28.8804 5.7005H30.6867V15.9639H28.8804V5.7005ZM37.4804 10.189H44.8564V11.7764H37.4804V10.189ZM45.0753 5.7005V7.2879H37.4257L38.411 6.26156V15.9639H36.6046V5.7005H45.0753ZM47.9933 10.3259H52.1671C52.7692 10.3259 53.2436 10.189 53.5903 9.91532C53.9461 9.64163 54.124 9.26759 54.124 8.7932C54.124 8.30968 53.9461 7.93563 53.5903 7.67107C53.2436 7.39738 52.7692 7.26053 52.1671 7.26053H47.7333L48.5407 6.24788V15.9639H46.7343V5.7005H52.3313C53.052 5.7005 53.6815 5.83278 54.2198 6.09735C54.7671 6.3528 55.1914 6.71315 55.4924 7.17843C55.8026 7.63458 55.9577 8.17283 55.9577 8.7932C55.9577 9.39531 55.8026 9.92901 55.4924 10.3943C55.1914 10.8504 54.7671 11.2108 54.2198 11.4754C53.6815 11.7308 53.052 11.8585 52.3313 11.8585H47.9933V10.3259ZM50.0186 11.1606H52.1397L56.2177 15.9639H54.0556L50.0186 11.1606ZM66.0233 10.0795V11.5848H58.8526V10.0795H66.0233ZM60.0432 10.8322L59.3179 15.4165L58.4558 14.4038H66.4201V15.9639H57.4705L58.2915 10.8322L57.4705 5.7005H66.3517V7.26053H58.4558L59.3179 6.24788L60.0432 10.8322ZM76.5005 10.0795V11.5848H69.3298V10.0795H76.5005ZM70.5203 10.8322L69.7951 15.4165L68.9329 14.4038H76.8973V15.9639H67.9477L68.7687 10.8322L67.9477 5.7005H76.8289V7.26053H68.9329L69.7951 6.24788L70.5203 10.8322ZM80.587 5.7005V15.1565L79.7796 14.3765H87.5113V15.9639H78.7806V5.7005H80.587ZM90.2521 13.6101V12.1185H97.4228V13.6101H90.2521ZM95.0143 5.7005L99.9407 15.9639H98.0112L93.5364 6.38473H94.2343L89.7594 15.9639H87.8299L92.7563 5.7005H95.0143ZM110.702 14.8691L109.963 14.9512V5.7005H111.715V15.9639H109.416L102.218 6.71315L102.943 6.63105V15.9639H101.192V5.7005H103.545L110.702 14.8691ZM124.832 11.8996C124.741 12.7389 124.444 13.4824 123.942 14.1301C123.45 14.7688 122.802 15.266 121.999 15.6218C121.196 15.9776 120.28 16.1555 119.249 16.1555C118.099 16.1555 117.091 15.9319 116.224 15.4849C115.358 15.0379 114.683 14.4175 114.199 13.6238C113.716 12.821 113.474 11.8905 113.474 10.8322C113.474 9.77392 113.716 8.84793 114.199 8.05423C114.683 7.25141 115.358 6.62649 116.224 6.17946C117.091 5.73243 118.099 5.50892 119.249 5.50892C120.28 5.50892 121.196 5.68682 121.999 6.04261C122.802 6.39841 123.45 6.89561 123.942 7.53422C124.444 8.17283 124.741 8.91636 124.832 9.76479H123.012C122.912 9.21741 122.693 8.74758 122.355 8.35529C122.027 7.963 121.598 7.66194 121.069 7.45212C120.54 7.23316 119.928 7.12369 119.235 7.12369C118.432 7.12369 117.734 7.27422 117.141 7.57528C116.557 7.87633 116.106 8.30512 115.786 8.86162C115.467 9.41812 115.308 10.075 115.308 10.8322C115.308 11.5894 115.467 12.2462 115.786 12.8028C116.106 13.3593 116.557 13.788 117.141 14.0891C117.734 14.3902 118.432 14.5407 119.235 14.5407C119.928 14.5407 120.54 14.4358 121.069 14.2259C121.598 14.0161 122.027 13.715 122.355 13.3228C122.693 12.9213 122.912 12.447 123.012 11.8996H124.832ZM134.686 10.0795V11.5848H127.516V10.0795H134.686ZM128.706 10.8322L127.981 15.4165L127.119 14.4038H135.083V15.9639H126.133L126.955 10.8322L126.133 5.7005H135.015V7.26053H127.119L127.981 6.24788L128.706 10.8322ZM138.225 10.3259H142.399C143.001 10.3259 143.476 10.189 143.822 9.91532C144.178 9.64163 144.356 9.26759 144.356 8.7932C144.356 8.30968 144.178 7.93563 143.822 7.67107C143.476 7.39738 143.001 7.26053 142.399 7.26053H137.965L138.773 6.24788V15.9639H136.966V5.7005H142.563C143.284 5.7005 143.914 5.83278 144.452 6.09735C144.999 6.3528 145.423 6.71315 145.725 7.17843C146.035 7.63458 146.19 8.17283 146.19 8.7932C146.19 9.39531 146.035 9.92901 145.725 10.3943C145.423 10.8504 144.999 11.2108 144.452 11.4754C143.914 11.7308 143.284 11.8585 142.563 11.8585H138.225V10.3259ZM140.251 11.1606H142.372L146.45 15.9639H144.288L140.251 11.1606ZM147.429 12.6249H149.263C149.317 13.0354 149.486 13.3957 149.769 13.7059C150.061 14.0161 150.444 14.2579 150.918 14.4312C151.393 14.5954 151.94 14.6775 152.561 14.6775C153.482 14.6775 154.212 14.5361 154.75 14.2533C155.288 13.9614 155.557 13.5691 155.557 13.0764C155.557 12.675 155.402 12.374 155.092 12.1733C154.782 11.9726 154.221 11.822 153.409 11.7217L151.192 11.4343C149.951 11.2701 149.048 10.9645 148.483 10.5174C147.926 10.0613 147.648 9.41812 147.648 8.58793C147.648 7.95844 147.835 7.41562 148.209 6.95947C148.592 6.4942 149.13 6.1384 149.824 5.89208C150.517 5.63664 151.329 5.50892 152.259 5.50892C153.181 5.50892 153.997 5.64576 154.709 5.91945C155.421 6.19314 155.986 6.57631 156.406 7.06895C156.835 7.55247 157.067 8.12266 157.104 8.77951H155.27C155.224 8.41459 155.069 8.09985 154.805 7.83528C154.549 7.57071 154.203 7.36545 153.765 7.21948C153.327 7.06439 152.811 6.98684 152.218 6.98684C151.379 6.98684 150.709 7.12369 150.207 7.39738C149.705 7.67107 149.454 8.04511 149.454 8.51951C149.454 8.88443 149.6 9.16724 149.892 9.36794C150.193 9.55953 150.713 9.70549 151.452 9.80585L153.696 10.1206C154.618 10.2483 155.343 10.4216 155.872 10.6406C156.41 10.8504 156.794 11.1378 157.022 11.5027C157.25 11.8585 157.364 12.3192 157.364 12.8849C157.364 13.5417 157.163 14.1165 156.762 14.6091C156.36 15.1017 155.795 15.4849 155.065 15.7586C154.344 16.0232 153.5 16.1555 152.533 16.1555C151.548 16.1555 150.677 16.0095 149.919 15.7175C149.171 15.4165 148.578 15.0014 148.14 14.4723C147.703 13.9431 147.465 13.3273 147.429 12.6249Z" fill="white"></path><path d="M159.046 3.15372C158.812 3.15372 158.595 3.11581 158.394 3.03998C158.194 2.9607 158.021 2.85041 157.875 2.7091C157.729 2.56434 157.615 2.39717 157.533 2.2076C157.452 2.01459 157.411 1.80434 157.411 1.57686C157.411 1.34938 157.452 1.14085 157.533 0.951286C157.615 0.758271 157.729 0.591107 157.875 0.449793C158.021 0.308479 158.194 0.198185 158.394 0.118911C158.595 0.0396369 158.812 0 159.046 0C159.281 0 159.498 0.0396369 159.698 0.118911C159.899 0.198185 160.072 0.308479 160.218 0.449793C160.364 0.591107 160.478 0.758271 160.559 0.951286C160.641 1.14085 160.681 1.34938 160.681 1.57686C160.681 1.80434 160.641 2.01459 160.559 2.2076C160.478 2.39717 160.364 2.56434 160.218 2.7091C160.072 2.85041 159.899 2.9607 159.698 3.03998C159.498 3.11581 159.281 3.15372 159.046 3.15372ZM159.046 2.85903C159.301 2.85903 159.527 2.80388 159.724 2.69359C159.921 2.58329 160.075 2.43164 160.187 2.23862C160.303 2.04216 160.361 1.82157 160.361 1.57686C160.361 1.33214 160.303 1.11328 160.187 0.920266C160.075 0.727251 159.921 0.575597 159.724 0.465303C159.527 0.355009 159.301 0.299862 159.046 0.299862C158.795 0.299862 158.569 0.355009 158.369 0.465303C158.172 0.575597 158.016 0.727251 157.9 0.920266C157.788 1.11328 157.732 1.33214 157.732 1.57686C157.732 1.82157 157.788 2.04216 157.9 2.23862C158.016 2.43164 158.172 2.58329 158.369 2.69359C158.569 2.80388 158.795 2.85903 159.046 2.85903ZM158.318 0.656594H158.695V2.48162H158.318V0.656594ZM159.204 1.78883H158.598V1.49414H159.174C159.265 1.49414 159.337 1.47001 159.388 1.42176C159.442 1.37351 159.469 1.30802 159.469 1.2253C159.469 1.14258 159.442 1.07709 159.388 1.02884C159.337 0.980583 159.265 0.956456 159.174 0.956456H158.598V0.656594H159.204C159.394 0.656594 159.549 0.710018 159.668 0.816865C159.79 0.920266 159.851 1.05641 159.851 1.2253C159.851 1.39419 159.79 1.53033 159.668 1.63373C159.549 1.73713 159.394 1.78883 159.204 1.78883ZM158.873 1.62856H159.276L159.882 2.48162H159.433L158.873 1.62856Z" fill="white"></path><path fill-rule="evenodd" clip-rule="evenodd" d="M2.4895 14.9239C1.89096 15.1749 1.26523 15.4421 0.831703 15.639C0.135867 15.9556 -0.149812 15.1658 0.0757746 14.6988L4.3767 5.78667C4.48782 5.55627 4.68098 5.43988 4.87556 5.43652H4.88176H4.88796C5.08207 5.4394 5.2757 5.55579 5.38683 5.78619L9.68775 14.6983C9.91333 15.1648 9.62766 15.9556 8.93182 15.6395C8.49829 15.4426 7.87257 15.1753 7.27402 14.9244C6.9273 14.7787 6.64543 14.511 6.48137 14.1714L5.38683 11.9034C5.2757 11.673 5.08255 11.5566 4.88796 11.5532H4.88176H4.87556C4.68098 11.5561 4.48782 11.6725 4.3767 11.9029L3.28215 14.1709C3.11809 14.5105 2.83622 14.7783 2.4895 14.9239ZM6.10773 9.82985C5.28743 10.0115 5.09097 10.2267 4.93088 11.144C4.92096 11.2004 4.84256 11.2004 4.83265 11.144C4.67208 10.2267 4.4761 10.0115 3.65579 9.82985C3.6029 9.81816 3.6029 9.74075 3.65579 9.72906C4.4761 9.54745 4.67255 9.33225 4.83265 8.41495C4.84256 8.35847 4.92096 8.35847 4.93088 8.41495C5.09144 9.33225 5.28743 9.54745 6.10773 9.72906C6.16063 9.74075 6.16063 9.81816 6.10773 9.82985Z" fill="white"></path></g></svg>