<svg width="329" height="342" viewBox="0 0 329 342" fill="none" xmlns="http://www.w3.org/2000/svg">
<path d="M159.435 0C156.344 0 157.653 8.18269 155.58 89.755C155.58 113.649 153.907 151.653 151.58 174.782C109.648 178.746 76.6991 192.093 50.5145 213.95L157.762 0H159.435Z" fill="white"/>
<path d="M169.618 0L277.229 213.041C248.317 187.838 215.732 176.419 173.073 172.018C169.109 133.505 168.054 33.6036 167.799 0H169.618Z" fill="white"/>
<path d="M148.161 187.802C127.432 267.301 73.426 326.071 0 342C11.8194 275.084 61.2429 197.257 148.161 187.802Z" fill="white"/>
<path d="M177.619 187.802C251.045 197.257 311.633 256.027 328.326 342C261.773 333.454 195.985 275.484 177.619 187.802Z" fill="white"/>
</svg>
